<mxfile host="drawio-plugin" modified="2021-03-28T07:45:06.423Z" agent="5.0 (Macintosh; Intel Mac OS X 10_16_0) AppleWebKit/537.36 (KHTML, like Gecko) Chrome/84.0.4147.105 Safari/537.36" etag="ncNpzZjhHAeVe5oYUptT" version="13.7.9" type="embed"><diagram id="rjR9wzhXq8Hpp7HeJRx-" name="Page-1"><mxGraphModel dx="925" dy="661" grid="1" gridSize="10" guides="1" tooltips="1" connect="1" arrows="1" fold="1" page="1" pageScale="1" pageWidth="850" pageHeight="1100" math="0" shadow="0"><root><mxCell id="0"/><mxCell id="1" parent="0"/><mxCell id="80" style="edgeStyle=orthogonalEdgeStyle;curved=1;rounded=0;orthogonalLoop=1;jettySize=auto;html=1;" edge="1" parent="1" source="60" target="70"><mxGeometry relative="1" as="geometry"/></mxCell><mxCell id="88" value="group1, group2" style="edgeLabel;html=1;align=center;verticalAlign=middle;resizable=0;points=[];" vertex="1" connectable="0" parent="80"><mxGeometry x="-0.033" relative="1" as="geometry"><mxPoint as="offset"/></mxGeometry></mxCell><mxCell id="60" value="Api for Group message&lt;br&gt;Application replica 1" style="rounded=0;whiteSpace=wrap;html=1;" vertex="1" parent="1"><mxGeometry x="95" y="190" width="305" height="110" as="geometry"/></mxCell><mxCell id="66" value="" style="edgeStyle=orthogonalEdgeStyle;curved=1;rounded=0;orthogonalLoop=1;jettySize=auto;html=1;" edge="1" parent="1" source="61" target="60"><mxGeometry relative="1" as="geometry"/></mxCell><mxCell id="61" value="Message&amp;nbsp;&lt;br&gt;Request 1&lt;br&gt;group 1" style="ellipse;whiteSpace=wrap;html=1;" vertex="1" parent="1"><mxGeometry x="120" y="20" width="120" height="80" as="geometry"/></mxCell><mxCell id="67" value="" style="edgeStyle=orthogonalEdgeStyle;curved=1;rounded=0;orthogonalLoop=1;jettySize=auto;html=1;" edge="1" parent="1" source="62" target="60"><mxGeometry relative="1" as="geometry"/></mxCell><mxCell id="62" value="Message&amp;nbsp;&lt;br&gt;Request 2&lt;br&gt;group 2" style="ellipse;whiteSpace=wrap;html=1;" vertex="1" parent="1"><mxGeometry x="280" y="20" width="120" height="80" as="geometry"/></mxCell><mxCell id="82" style="edgeStyle=orthogonalEdgeStyle;curved=1;rounded=0;orthogonalLoop=1;jettySize=auto;html=1;" edge="1" parent="1" source="63" target="78"><mxGeometry relative="1" as="geometry"/></mxCell><mxCell id="63" value="Message&amp;nbsp;&lt;br&gt;Request 3&lt;br&gt;group 3" style="ellipse;whiteSpace=wrap;html=1;" vertex="1" parent="1"><mxGeometry x="450" y="20" width="120" height="80" as="geometry"/></mxCell><mxCell id="83" style="edgeStyle=orthogonalEdgeStyle;curved=1;rounded=0;orthogonalLoop=1;jettySize=auto;html=1;entryX=0.5;entryY=0;entryDx=0;entryDy=0;" edge="1" parent="1" source="64" target="78"><mxGeometry relative="1" as="geometry"/></mxCell><mxCell id="64" value="Message&amp;nbsp;&lt;br&gt;Request 4&lt;br&gt;group 4" style="ellipse;whiteSpace=wrap;html=1;" vertex="1" parent="1"><mxGeometry x="610" y="20" width="120" height="80" as="geometry"/></mxCell><mxCell id="86" style="edgeStyle=orthogonalEdgeStyle;curved=1;rounded=0;orthogonalLoop=1;jettySize=auto;html=1;" edge="1" parent="1" source="70" target="77"><mxGeometry relative="1" as="geometry"/></mxCell><mxCell id="90" value="group 1,2,3,4" style="edgeLabel;html=1;align=center;verticalAlign=middle;resizable=0;points=[];" vertex="1" connectable="0" parent="86"><mxGeometry x="0.1284" y="3" relative="1" as="geometry"><mxPoint as="offset"/></mxGeometry></mxCell><mxCell id="87" style="edgeStyle=orthogonalEdgeStyle;curved=1;rounded=0;orthogonalLoop=1;jettySize=auto;html=1;entryX=0.5;entryY=0;entryDx=0;entryDy=0;" edge="1" parent="1" source="70" target="84"><mxGeometry relative="1" as="geometry"/></mxCell><mxCell id="91" value="group 1,2,3,4" style="edgeLabel;html=1;align=center;verticalAlign=middle;resizable=0;points=[];" vertex="1" connectable="0" parent="87"><mxGeometry x="-0.1059" y="-2" relative="1" as="geometry"><mxPoint as="offset"/></mxGeometry></mxCell><mxCell id="70" value="Broker" style="ellipse;whiteSpace=wrap;html=1;" vertex="1" parent="1"><mxGeometry x="215" y="380" width="420" height="80" as="geometry"/></mxCell><mxCell id="77" value="User notification subscription API&lt;br&gt;Application replica 1&lt;br&gt;&lt;br&gt;&lt;br&gt;&lt;br&gt;&lt;br&gt;&lt;br&gt;&lt;br&gt;&lt;br&gt;&lt;br&gt;&lt;br&gt;&lt;br&gt;&lt;br&gt;&lt;br&gt;&lt;br&gt;&lt;br&gt;&lt;br&gt;&lt;br&gt;&lt;br&gt;" style="rounded=0;whiteSpace=wrap;html=1;" vertex="1" parent="1"><mxGeometry x="95" y="520" width="305" height="360" as="geometry"/></mxCell><mxCell id="79" style="edgeStyle=orthogonalEdgeStyle;curved=1;rounded=0;orthogonalLoop=1;jettySize=auto;html=1;" edge="1" parent="1" source="78" target="70"><mxGeometry relative="1" as="geometry"/></mxCell><mxCell id="89" value="group3, 4" style="edgeLabel;html=1;align=center;verticalAlign=middle;resizable=0;points=[];" vertex="1" connectable="0" parent="79"><mxGeometry x="0.2176" y="3" relative="1" as="geometry"><mxPoint x="1" as="offset"/></mxGeometry></mxCell><mxCell id="78" value="Api for Group message&lt;br&gt;Application replica2" style="rounded=0;whiteSpace=wrap;html=1;" vertex="1" parent="1"><mxGeometry x="420" y="190" width="305" height="110" as="geometry"/></mxCell><mxCell id="128" style="edgeStyle=orthogonalEdgeStyle;curved=1;rounded=0;orthogonalLoop=1;jettySize=auto;html=1;entryX=0.5;entryY=0;entryDx=0;entryDy=0;" edge="1" parent="1" source="84" target="125"><mxGeometry relative="1" as="geometry"/></mxCell><mxCell id="129" style="edgeStyle=orthogonalEdgeStyle;curved=1;rounded=0;orthogonalLoop=1;jettySize=auto;html=1;entryX=0.5;entryY=0;entryDx=0;entryDy=0;" edge="1" parent="1" source="84" target="126"><mxGeometry relative="1" as="geometry"/></mxCell><mxCell id="130" style="edgeStyle=orthogonalEdgeStyle;curved=1;rounded=0;orthogonalLoop=1;jettySize=auto;html=1;entryX=0.5;entryY=0;entryDx=0;entryDy=0;" edge="1" parent="1" source="84" target="127"><mxGeometry relative="1" as="geometry"/></mxCell><mxCell id="84" value="User notification subscription API&lt;br&gt;Application replica 1&lt;br&gt;&lt;br&gt;&lt;br&gt;&lt;br&gt;&lt;br&gt;&lt;br&gt;&lt;br&gt;&lt;br&gt;&lt;br&gt;&lt;br&gt;&lt;br&gt;&lt;br&gt;&lt;br&gt;&lt;br&gt;&lt;br&gt;" style="rounded=0;whiteSpace=wrap;html=1;" vertex="1" parent="1"><mxGeometry x="425" y="520" width="305" height="360" as="geometry"/></mxCell><mxCell id="117" style="edgeStyle=orthogonalEdgeStyle;curved=1;rounded=0;orthogonalLoop=1;jettySize=auto;html=1;entryX=0;entryY=0.5;entryDx=0;entryDy=0;" edge="1" parent="1" source="92" target="107"><mxGeometry relative="1" as="geometry"/></mxCell><mxCell id="120" style="edgeStyle=orthogonalEdgeStyle;curved=1;rounded=0;orthogonalLoop=1;jettySize=auto;html=1;entryX=0;entryY=0.5;entryDx=0;entryDy=0;" edge="1" parent="1" source="92" target="108"><mxGeometry relative="1" as="geometry"/></mxCell><mxCell id="92" value="Multicast" style="triangle;whiteSpace=wrap;html=1;rotation=-90;" vertex="1" parent="1"><mxGeometry x="130" y="720" width="75" height="80" as="geometry"/></mxCell><mxCell id="118" style="edgeStyle=orthogonalEdgeStyle;curved=1;rounded=0;orthogonalLoop=1;jettySize=auto;html=1;entryX=1;entryY=0.5;entryDx=0;entryDy=0;" edge="1" parent="1" source="93" target="107"><mxGeometry relative="1" as="geometry"/></mxCell><mxCell id="122" value="" style="edgeStyle=orthogonalEdgeStyle;curved=1;rounded=0;orthogonalLoop=1;jettySize=auto;html=1;" edge="1" parent="1" source="93" target="108"><mxGeometry relative="1" as="geometry"/></mxCell><mxCell id="93" value="&lt;span&gt;Multicast&lt;/span&gt;" style="triangle;whiteSpace=wrap;html=1;rotation=-90;" vertex="1" parent="1"><mxGeometry x="220" y="720" width="75" height="80" as="geometry"/></mxCell><mxCell id="123" style="edgeStyle=orthogonalEdgeStyle;curved=1;rounded=0;orthogonalLoop=1;jettySize=auto;html=1;entryX=1;entryY=0.5;entryDx=0;entryDy=0;" edge="1" parent="1" source="94" target="108"><mxGeometry relative="1" as="geometry"/></mxCell><mxCell id="124" style="edgeStyle=orthogonalEdgeStyle;curved=1;rounded=0;orthogonalLoop=1;jettySize=auto;html=1;entryX=1;entryY=0.5;entryDx=0;entryDy=0;" edge="1" parent="1" source="94" target="109"><mxGeometry relative="1" as="geometry"/></mxCell><mxCell id="94" value="&lt;span&gt;Multicast&lt;/span&gt;" style="triangle;whiteSpace=wrap;html=1;rotation=-90;" vertex="1" parent="1"><mxGeometry x="310" y="720" width="75" height="80" as="geometry"/></mxCell><mxCell id="101" value="" style="endArrow=classic;html=1;entryX=1;entryY=0.5;entryDx=0;entryDy=0;" edge="1" parent="1" target="92"><mxGeometry width="50" height="50" relative="1" as="geometry"><mxPoint x="172" y="660" as="sourcePoint"/><mxPoint x="189.5" y="722.5" as="targetPoint"/></mxGeometry></mxCell><mxCell id="103" value="" style="endArrow=classic;html=1;entryX=1;entryY=0.5;entryDx=0;entryDy=0;" edge="1" parent="1"><mxGeometry width="50" height="50" relative="1" as="geometry"><mxPoint x="262" y="660" as="sourcePoint"/><mxPoint x="257.5" y="722.5" as="targetPoint"/></mxGeometry></mxCell><mxCell id="104" value="" style="endArrow=classic;html=1;entryX=1;entryY=0.5;entryDx=0;entryDy=0;" edge="1" parent="1"><mxGeometry width="50" height="50" relative="1" as="geometry"><mxPoint x="352" y="660" as="sourcePoint"/><mxPoint x="347.5" y="722.5" as="targetPoint"/></mxGeometry></mxCell><mxCell id="105" value="User1&lt;br&gt;subscription" style="ellipse;whiteSpace=wrap;html=1;" vertex="1" parent="1"><mxGeometry x="115" y="930" width="90" height="80" as="geometry"/></mxCell><mxCell id="111" style="edgeStyle=orthogonalEdgeStyle;curved=1;rounded=0;orthogonalLoop=1;jettySize=auto;html=1;entryX=0.5;entryY=0;entryDx=0;entryDy=0;" edge="1" parent="1" source="107" target="105"><mxGeometry relative="1" as="geometry"/></mxCell><mxCell id="107" value="1,2" style="rhombus;whiteSpace=wrap;html=1;" vertex="1" parent="1"><mxGeometry x="132.5" y="820" width="55" height="50" as="geometry"/></mxCell><mxCell id="114" style="edgeStyle=orthogonalEdgeStyle;curved=1;rounded=0;orthogonalLoop=1;jettySize=auto;html=1;" edge="1" parent="1" source="108" target="112"><mxGeometry relative="1" as="geometry"/></mxCell><mxCell id="108" value="1,2,3" style="rhombus;whiteSpace=wrap;html=1;" vertex="1" parent="1"><mxGeometry x="240" y="820" width="55" height="50" as="geometry"/></mxCell><mxCell id="115" style="edgeStyle=orthogonalEdgeStyle;curved=1;rounded=0;orthogonalLoop=1;jettySize=auto;html=1;" edge="1" parent="1" source="109" target="113"><mxGeometry relative="1" as="geometry"/></mxCell><mxCell id="109" value="3" style="rhombus;whiteSpace=wrap;html=1;" vertex="1" parent="1"><mxGeometry x="320" y="810" width="55" height="50" as="geometry"/></mxCell><mxCell id="112" value="User2&lt;br&gt;subscription" style="ellipse;whiteSpace=wrap;html=1;" vertex="1" parent="1"><mxGeometry x="220" y="930" width="90" height="80" as="geometry"/></mxCell><mxCell id="113" value="User3&lt;br&gt;subscription" style="ellipse;whiteSpace=wrap;html=1;" vertex="1" parent="1"><mxGeometry x="320" y="930" width="90" height="80" as="geometry"/></mxCell><mxCell id="125" value="User4&lt;br&gt;subscription" style="ellipse;whiteSpace=wrap;html=1;" vertex="1" parent="1"><mxGeometry x="435" y="930" width="90" height="80" as="geometry"/></mxCell><mxCell id="126" value="User5&lt;br&gt;subscription" style="ellipse;whiteSpace=wrap;html=1;" vertex="1" parent="1"><mxGeometry x="540" y="930" width="90" height="80" as="geometry"/></mxCell><mxCell id="127" value="User6&lt;br&gt;subscription" style="ellipse;whiteSpace=wrap;html=1;" vertex="1" parent="1"><mxGeometry x="640" y="930" width="90" height="80" as="geometry"/></mxCell></root></mxGraphModel></diagram></mxfile>